<svg xmlns="http://www.w3.org/2000/svg" width="1152" height="768" viewBox="0 0 1152 768"> <defs> <linearGradient id="gMaroon" x1="0" y1="0" x2="0" y2="768" gradientUnits="userSpaceOnUse"> <stop offset="0" stop-color="#5b0b17"/> <stop offset="1" stop-color="#2a050b"/> </linearGradient> <linearGradient id="gRed" x1="0" y1="0" x2="0" y2="768" gradientUnits="userSpaceOnUse"> <stop offset="0" stop-color="#ff2a3d"/> <stop offset="1" stop-color="#c91523"/> </linearGradient> <clipPath id="clipLeftMid"> <rect x="0" y="150" width="576" height="468"/> </clipPath> <clipPath id="clipRightMid"> <rect x="576" y="150" width="576" height="468"/> </clipPath> </defs> <rect x="0" y="0" width="1152" height="768" fill="#ffffff"/> <circle cx="576" cy="384" r="275" fill="none" stroke="url(#gMaroon)" stroke-width="130" clip-path="url(#clipLeftMid)"/> <circle cx="576" cy="384" r="275" fill="none" stroke="url(#gMaroon)" stroke-width="130" clip-path="url(#clipRightMid)"/> <g clip-path="url(#clipLeftMid)"> <rect x="563" y="104" width="26" height="120" rx="4" fill="#ffffff" transform="rotate(208 576 384)"/> <rect x="563" y="104" width="26" height="120" rx="4" fill="#ffffff" transform="rotate(225 576 384)"/> <rect x="563" y="104" width="26" height="120" rx="4" fill="#ffffff" transform="rotate(242 576 384)"/> <rect x="563" y="104" width="26" height="120" rx="4" fill="#ffffff" transform="rotate(259 576 384)"/> <rect x="563" y="104" width="26" height="120" rx="4" fill="#ffffff" transform="rotate(281 576 384)"/> <rect x="563" y="104" width="26" height="120" rx="4" fill="#ffffff" transform="rotate(298 576 384)"/> <rect x="563" y="104" width="26" height="120" rx="4" fill="#ffffff" transform="rotate(315 576 384)"/> <rect x="563" y="104" width="26" height="120" rx="4" fill="#ffffff" transform="rotate(332 576 384)"/> </g> <g clip-path="url(#clipRightMid)"> <rect x="563" y="104" width="26" height="120" rx="4" fill="#ffffff" transform="rotate(152 576 384)"/> <rect x="563" y="104" width="26" height="120" rx="4" fill="#ffffff" transform="rotate(135 576 384)"/> <rect x="563" y="104" width="26" height="120" rx="4" fill="#ffffff" transform="rotate(118 576 384)"/> <rect x="563" y="104" width="26" height="120" rx="4" fill="#ffffff" transform="rotate(101 576 384)"/> <rect x="563" y="104" width="26" height="120" rx="4" fill="#ffffff" transform="rotate(79 576 384)"/> <rect x="563" y="104" width="26" height="120" rx="4" fill="#ffffff" transform="rotate(62 576 384)"/> <rect x="563" y="104" width="26" height="120" rx="4" fill="#ffffff" transform="rotate(45 576 384)"/> <rect x="563" y="104" width="26" height="120" rx="4" fill="#ffffff" transform="rotate(28 576 384)"/> </g> <g fill="url(#gMaroon)"> <path d="M90 300 L350 300 L420 330 L90 330 Z"/> <path d="M140 340 L350 340 L430 370 L140 370 Z"/> <path d="M180 380 L360 380 L440 410 L180 410 Z"/> <path d="M220 420 L370 420 L450 450 L220 450 Z"/> </g> <g transform="translate(1152 0) scale(-1 1)" fill="url(#gMaroon)"> <path d="M90 300 L350 300 L420 330 L90 330 Z"/> <path d="M140 340 L350 340 L430 370 L140 370 Z"/> <path d="M180 380 L360 380 L440 410 L180 410 Z"/> <path d="M220 420 L370 420 L450 450 L220 450 Z"/> </g> <circle cx="576" cy="384" r="190" fill="#ffffff"/> <circle cx="576" cy="384" r="130" fill="none" stroke="url(#gRed)" stroke-width="40"/> <g fill="url(#gRed)"> <rect x="566" y="219" width="20" height="30" rx="3" transform="rotate(0 576 384)"/> <rect x="566" y="219" width="20" height="30" rx="3" transform="rotate(20 576 384)"/> <rect x="566" y="219" width="20" height="30" rx="3" transform="rotate(40 576 384)"/> <rect x="566" y="219" width="20" height="30" rx="3" transform="rotate(60 576 384)"/> <rect x="566" y="219" width="20" height="30" rx="3" transform="rotate(80 576 384)"/> <rect x="566" y="219" width="20" height="30" rx="3" transform="rotate(100 576 384)"/> <rect x="566" y="219" width="20" height="30" rx="3" transform="rotate(120 576 384)"/> <rect x="566" y="219" width="20" height="30" rx="3" transform="rotate(140 576 384)"/> <rect x="566" y="219" width="20" height="30" rx="3" transform="rotate(160 576 384)"/> <rect x="566" y="219" width="20" height="30" rx="3" transform="rotate(180 576 384)"/> <rect x="566" y="219" width="20" height="30" rx="3" transform="rotate(200 576 384)"/> <rect x="566" y="219" width="20" height="30" rx="3" transform="rotate(220 576 384)"/> <rect x="566" y="219" width="20" height="30" rx="3" transform="rotate(240 576 384)"/> <rect x="566" y="219" width="20" height="30" rx="3" transform="rotate(260 576 384)"/> <rect x="566" y="219" width="20" height="30" rx="3" transform="rotate(280 576 384)"/> <rect x="566" y="219" width="20" height="30" rx="3" transform="rotate(300 576 384)"/> <rect x="566" y="219" width="20" height="30" rx="3" transform="rotate(320 576 384)"/> <rect x="566" y="219" width="20" height="30" rx="3" transform="rotate(340 576 384)"/> </g> <g fill="url(#gMaroon)"> <rect x="446" y="70" width="260" height="70" rx="35"/> <rect x="466" y="145" width="220" height="12" rx="6"/> <rect x="466" y="163" width="220" height="12" rx="6"/> <rect x="496" y="120" width="160" height="500" rx="40"/> <rect x="513" y="145" width="24" height="110" rx="12" fill="#ffffff" opacity="0.18"/> <rect x="615" y="145" width="24" height="110" rx="12" fill="#ffffff" opacity="0.18"/> <rect x="456" y="610" width="240" height="110" rx="35"/> </g> <circle cx="576" cy="210" r="32" fill="#ffffff"/> <circle cx="576" cy="665" r="34" fill="#ffffff"/> </svg>